<svg class="home__photoframe" viewBox="0 0 200 187" xmlns="http://www.w3.org/2000/svg" xmlns:xlink="http://www.w3.org/1999/xlink">
    <mask id="mask0" mask-type="alpha">
        <path d="M46.5,-79.4C59.9,-72.8,70.1,-59.6,74.4,-45.2C78.7,
        -30.9,77.2,-15.5,76.4,-0.4C75.6,14.6,75.7,29.2,69.5,
        40.3C63.3,51.4,50.9,59,38.3,67.6C25.7,76.2,12.8,85.8,-0.3,
        86.3C-13.5,86.9,-26.9,78.4,-39.1,69.6C-51.3,60.8,-62.3,51.5,
        -70.9,39.8C-79.6,28.2,-86.1,14.1,-85.7,0.2C-85.2,-13.6,-78,
        -27.2,-70.8,-41.4C-63.6,-55.7,-56.5,-70.6,-44.7,-78.1C-32.9,
        -85.7,-16.5,-85.9,0,-86C16.6,-86.1,33.1,-86,46.5,-79.4Z" 
        transform="translate(100 100)" />
    </mask>
        <g mask="url(#mask0)">
            <path d="M46.5,-79.4C59.9,-72.8,70.1,-59.6,74.4,-45.2C78.7,
            -30.9,77.2,-15.5,76.4,-0.4C75.6,14.6,75.7,29.2,69.5,
            40.3C63.3,51.4,50.9,59,38.3,67.6C25.7,76.2,12.8,85.8,-0.3,
            86.3C-13.5,86.9,-26.9,78.4,-39.1,69.6C-51.3,60.8,-62.3,51.5,
            -70.9,39.8C-79.6,28.2,-86.1,14.1,-85.7,0.2C-85.2,-13.6,-78,
            -27.2,-70.8,-41.4C-63.6,-55.7,-56.5,-70.6,-44.7,-78.1C-32.9,
            -85.7,-16.5,-85.9,0,-86C16.6,-86.1,33.1,-86,46.5,-79.4Z" 
            transform="translate(100 100)" />
            <image class="home__photoframe-img" x='20' y='-30' xlink:href="assets/img/frameimg-preview.png"/>
        </g>
    </svg>

